<svg width="28" height="28" viewBox="0 0 28 28" fill="none" xmlns="http://www.w3.org/2000/svg">
<path d="M10.3718 17.9698C9.73222 18.048 9.27716 18.6299 9.35537 19.2694C9.43359 19.909 10.0155 20.3641 10.655 20.2859C11.2946 20.2076 11.7497 19.6258 11.6714 18.9862C11.5932 18.3466 11.0114 17.8916 10.3718 17.9698Z" fill="white"/>
<path d="M6.47281 14.9205C6.3946 14.281 6.84966 13.6991 7.48923 13.6209C8.1288 13.5427 8.71068 13.9977 8.78889 14.6373C8.86711 15.2769 8.41204 15.8587 7.77248 15.937C7.13291 16.0152 6.55103 15.5601 6.47281 14.9205Z" fill="white"/>
<path d="M9.2388 8.70548C8.59923 8.78369 8.14417 9.36557 8.22239 10.0051C8.3006 10.6447 8.88248 11.0998 9.52205 11.0216C10.1616 10.9433 10.6167 10.3615 10.5385 9.72189C10.4602 9.08233 9.87837 8.62726 9.2388 8.70548Z" fill="white"/>
<path d="M18.3135 10.8279C18.2353 10.1883 18.6904 9.60646 19.33 9.52825C19.9695 9.45003 20.5514 9.9051 20.6296 10.5447C20.7078 11.1842 20.2528 11.7661 19.6132 11.8443C18.9736 11.9225 18.3918 11.4675 18.3135 10.8279Z" fill="white"/>
<path d="M13.9914 12.6917C13.3518 12.7699 12.8968 13.3518 12.975 13.9913C13.0532 14.6309 13.6351 15.086 14.2747 15.0078C14.9142 14.9295 15.3693 14.3477 15.2911 13.7081C15.2129 13.0685 14.631 12.6135 13.9914 12.6917Z" fill="white"/>
<path d="M13.2919 8.20978C13.2137 7.57021 13.6688 6.98834 14.3084 6.91012C14.9479 6.8319 15.5298 7.28697 15.608 7.92653C15.6862 8.5661 15.2312 9.14798 14.5916 9.2262C13.952 9.30441 13.3702 8.84935 13.2919 8.20978Z" fill="white"/>
<path fill-rule="evenodd" clip-rule="evenodd" d="M2.62841 13.7243C2.78065 7.44389 7.99534 2.47604 14.2757 2.62829C20.5561 2.78053 25.524 7.99521 25.3717 14.2756C25.3621 14.6734 25.2284 15.0367 24.9821 15.3359C24.7465 15.6221 24.4415 15.8097 24.1405 15.9354C23.5548 16.1798 22.8207 16.2565 22.0943 16.2614C18.9575 16.2827 16.2329 18.9807 16.0548 22.1628C16.0133 22.9052 15.8867 23.6603 15.5672 24.2536C15.4018 24.5609 15.1694 24.8531 14.8439 25.0647C14.5107 25.2814 14.1286 25.3814 13.7244 25.3716C7.44401 25.2194 2.47616 20.0047 2.62841 13.7243ZM14.2333 4.37777C8.91914 4.24895 4.50672 8.45251 4.37789 13.7667C4.24907 19.0809 8.45263 23.4933 13.7668 23.6221C13.8463 23.624 13.8756 23.6069 13.8901 23.5976C13.9122 23.5832 13.9636 23.5406 14.0264 23.424C14.1633 23.1697 14.2708 22.7216 14.3076 22.065C14.5344 18.011 17.9719 14.5393 22.0824 14.5115C22.7382 14.507 23.1983 14.4323 23.4664 14.3204C23.561 14.2809 23.6053 14.2475 23.6223 14.2323C23.7506 8.91852 19.5472 4.50659 14.2333 4.37777Z" fill="white"/>
</svg>
